<?xml version="1.0" encoding="utf-8"?>
<!-- Generator: Adobe Illustrator 16.0.0, SVG Export Plug-In . SVG Version: 6.00 Build 0)  -->
<!DOCTYPE svg PUBLIC "-//W3C//DTD SVG 1.1//EN" "http://www.w3.org/Graphics/SVG/1.1/DTD/svg11.dtd">
<svg version="1.1" id="Layer_1" xmlns="http://www.w3.org/2000/svg" xmlns:xlink="http://www.w3.org/1999/xlink" x="0px" y="0px"
	 width="48px" height="48px" viewBox="0 0 48 48" enable-background="new 0 0 48 48" xml:space="preserve">
<path fill="#fecb83" d="M38.97,0H12.266C8.828,0.008,6.014,2.809,5.99,6.248v35.508c0.023,3.436,2.838,6.237,6.275,6.244h26.761
	c0.797,0,1.549-0.307,2.126-0.869c0.553-0.567,0.857-1.318,0.857-2.113V3.039C42.007,1.367,40.644,0.004,38.97,0z M33.481,12.172
	L31.64,9.237c-0.118-0.199-0.284-0.366-0.482-0.485c-0.219-0.131-0.468-0.199-0.722-0.199c-0.492,0-0.955,0.262-1.205,0.678
	l-1.833,2.924V2.813h6.084V12.172z M28.921,15.047l1.521-2.446l1.523,2.446c0.682,1.088,1.689,1.611,2.76,1.31
	c0.981-0.32,1.64-1.265,1.597-2.284V2.842h2.663c0.111,0.002,0.2,0.091,0.2,0.197v32.45c-0.063-0.005-0.128-0.006-0.195-0.006
	h-0.002H12.266c-1.219,0-2.42,0.362-3.434,1.028V6.249c0.008-1.886,1.549-3.427,3.436-3.437h12.317v11.234
	c-0.048,1.038,0.608,1.988,1.604,2.311C27.181,16.657,28.231,16.146,28.921,15.047z M12.266,38.319h26.72
	c0.111,0.001,0.199,0.089,0.199,0.198v1.841l-25.768,0.027c-0.774,0-1.406,0.632-1.406,1.407s0.632,1.406,1.408,1.406l25.766-0.028
	v1.825c0.001,0.056-0.019,0.107-0.052,0.141c-0.038,0.036-0.088,0.056-0.146,0.056H12.266c-1.894,0-3.437-1.542-3.437-3.436
	C8.829,39.86,10.372,38.319,12.266,38.319z"/>
</svg>
