<?xml version="1.0" encoding="utf-8"?>
<!-- Generator: Adobe Illustrator 16.0.0, SVG Export Plug-In . SVG Version: 6.00 Build 0)  -->
<!DOCTYPE svg PUBLIC "-//W3C//DTD SVG 1.1//EN" "http://www.w3.org/Graphics/SVG/1.1/DTD/svg11.dtd">
<svg version="1.1" id="Layer_1" xmlns="http://www.w3.org/2000/svg" xmlns:xlink="http://www.w3.org/1999/xlink" x="0px" y="0px"
	 width="48px" height="48px" viewBox="0 0 48 48" enable-background="new 0 0 48 48" xml:space="preserve">
<g>
	<g>
		<path fill="#7F7F7F" d="M24,9.077C15.773,9.077,9.079,15.772,9.079,24c0,8.228,6.694,14.921,14.921,14.921
			c8.228,0,14.923-6.693,14.923-14.921C38.923,15.772,32.228,9.077,24,9.077z M24,35.994c-6.614,0-11.994-5.381-11.994-11.994
			c0-6.615,5.38-11.995,11.994-11.995c6.615,0,11.997,5.38,11.997,11.995C35.997,30.613,30.615,35.994,24,35.994z"/>
		<path fill="#7F7F7F" d="M24,6.403c0.808,0,1.464-0.656,1.464-1.464V1.463C25.464,0.655,24.808,0,24,0
			c-0.807,0-1.463,0.655-1.463,1.463v3.476C22.537,5.748,23.193,6.403,24,6.403z"/>
		<path fill="#7F7F7F" d="M24,41.596c-0.807,0-1.463,0.655-1.463,1.464v3.477C22.537,47.345,23.193,48,24,48
			c0.808,0,1.464-0.655,1.464-1.464V43.06C25.464,42.251,24.808,41.596,24,41.596z"/>
		<path fill="#7F7F7F" d="M9.487,11.558c0.287,0.285,0.662,0.428,1.036,0.428c0.375,0,0.749-0.143,1.035-0.428
			c0.57-0.571,0.57-1.498,0-2.069L9.1,7.03c-0.57-0.572-1.498-0.572-2.069-0.002c-0.573,0.572-0.573,1.498,0,2.069L9.487,11.558z"/>
		<path fill="#7F7F7F" d="M38.514,36.442c-0.571-0.571-1.497-0.572-2.07,0c-0.571,0.571-0.571,1.497,0,2.069l2.458,2.458
			c0.285,0.286,0.659,0.43,1.034,0.43s0.75-0.144,1.034-0.43c0.572-0.571,0.572-1.497,0-2.069L38.514,36.442z"/>
		<path fill="#7F7F7F" d="M4.94,22.538l-3.475-0.002l0,0C0.657,22.536,0,23.191,0,23.999c0,0.809,0.656,1.465,1.464,1.465H4.94l0,0
			c0.809,0,1.464-0.656,1.464-1.463C6.404,23.192,5.749,22.538,4.94,22.538z"/>
		<path fill="#7F7F7F" d="M46.536,22.538l-3.476-0.002l0,0c-0.808,0-1.462,0.655-1.462,1.463c0,0.809,0.654,1.465,1.462,1.465h3.476
			l0,0C47.345,25.464,48,24.808,48,24C48,23.192,47.345,22.538,46.536,22.538z"/>
		<path fill="#7F7F7F" d="M9.49,36.442L7.031,38.9c-0.573,0.571-0.573,1.497,0,2.068c0.285,0.286,0.66,0.429,1.035,0.429
			S8.814,41.255,9.1,40.97l2.458-2.457c0.572-0.57,0.572-1.498,0-2.068C10.987,35.872,10.061,35.872,9.49,36.442z"/>
		<path fill="#7F7F7F" d="M38.904,7.03l-2.461,2.456c-0.571,0.572-0.571,1.497,0,2.069c0.284,0.287,0.659,0.43,1.034,0.43
			s0.75-0.143,1.036-0.427L40.972,9.1c0.571-0.571,0.572-1.497,0.002-2.069C40.401,6.458,39.475,6.458,38.904,7.03z"/>
	</g>
</g>
</svg>
