<?xml version="1.0" encoding="utf-8"?>
<!-- Generator: Adobe Illustrator 16.0.0, SVG Export Plug-In . SVG Version: 6.00 Build 0)  -->
<!DOCTYPE svg PUBLIC "-//W3C//DTD SVG 1.1//EN" "http://www.w3.org/Graphics/SVG/1.1/DTD/svg11.dtd">
<svg version="1.1" id="Layer_1" xmlns="http://www.w3.org/2000/svg" xmlns:xlink="http://www.w3.org/1999/xlink" x="0px" y="0px"
	 width="48px" height="48px" viewBox="0 0 48 48" enable-background="new 0 0 48 48" xml:space="preserve">
<g>
	<path fill="#7F7F7F" d="M28.691,45.187h-1.286L16.449,9.775c-0.182-0.589-0.727-0.99-1.343-0.99c0,0-0.001,0-0.001,0
		c-0.618,0-1.162,0.404-1.343,0.994L2.92,45.187H1.406C0.629,45.187,0,45.816,0,46.593C0,47.37,0.629,48,1.406,48h6.037
		c0.777,0,1.406-0.63,1.406-1.407c0-0.776-0.629-1.406-1.406-1.406H5.862l1.737-5.67h9.166l1.741,5.67h-1.542
		c-0.776,0-1.406,0.63-1.406,1.406c0,0.777,0.63,1.407,1.406,1.407h11.728c0.776,0,1.406-0.63,1.406-1.407
		C30.098,45.816,29.468,45.187,28.691,45.187z M8.46,36.704l3.715-12.138l3.727,12.138H8.46z"/>
	<path fill="#7F7F7F" d="M46.594,45.187h-2.073v-12.85c0-3.104-2.522-5.631-5.624-5.631h-0.896c-3.102,0-5.624,2.526-5.624,5.631
		v0.369c0,0.777,0.63,1.406,1.406,1.406s1.406-0.629,1.406-1.406v-0.369c0-1.554,1.261-2.818,2.812-2.818h0.896
		c1.55,0,2.812,1.265,2.812,2.818v1.1l-6.768,2.649c-2.198,0.86-3.617,2.942-3.617,5.306v0.575c0,2.747,1.958,5.103,4.657,5.601
		c0.343,0.063,0.688,0.094,1.032,0.094c1.494,0,2.946-0.59,4.022-1.668l0.673-0.674v0.218c0,1.357,1.104,2.463,2.461,2.463h2.425
		C47.371,48,48,47.37,48,46.593C48,45.816,47.371,45.187,46.594,45.187z M39.046,44.005c-0.67,0.671-1.625,0.969-2.555,0.797
		c-1.365-0.252-2.355-1.445-2.355-2.835v-0.575c0-1.197,0.717-2.252,1.829-2.687l5.743-2.248v4.882L39.046,44.005z"/>
	<path fill="#7F7F7F" d="M46.594,0c-0.776,0-1.406,0.629-1.406,1.406v0.941H2.813V1.406C2.813,0.629,2.184,0,1.406,0
		S0,0.629,0,1.406v4.695c0,0.776,0.629,1.406,1.406,1.406s1.406-0.63,1.406-1.406V5.16h42.375v0.941c0,0.776,0.63,1.406,1.406,1.406
		c0.777,0,1.406-0.63,1.406-1.406V1.406C48,0.629,47.371,0,46.594,0z"/>
</g>
</svg>
