<?xml version="1.0" encoding="utf-8"?>
<!-- Generator: Adobe Illustrator 16.0.0, SVG Export Plug-In . SVG Version: 6.00 Build 0)  -->
<!DOCTYPE svg PUBLIC "-//W3C//DTD SVG 1.1//EN" "http://www.w3.org/Graphics/SVG/1.1/DTD/svg11.dtd">
<svg version="1.1" id="Layer_1" xmlns="http://www.w3.org/2000/svg" xmlns:xlink="http://www.w3.org/1999/xlink" x="0px" y="0px"
	 width="48px" height="48px" viewBox="0 0 48 48" enable-background="new 0 0 48 48" xml:space="preserve">
<g>
	<g>
		<path fill="#7F7F7F" d="M45.428,7.832H2.573C1.152,7.832,0,6.68,0,5.259s1.151-2.572,2.572-2.572h42.855
			C46.85,2.687,48,3.839,48,5.259S46.85,7.832,45.428,7.832z"/>
	</g>
	<g>
		<path fill="#7F7F7F" d="M34.57,26.572H2.573C1.152,26.572,0,25.42,0,24s1.151-2.572,2.572-2.572H34.57
			c1.422,0,2.572,1.152,2.572,2.572S35.992,26.572,34.57,26.572z"/>
	</g>
	<g>
		<path fill="#7F7F7F" d="M45.428,45.313H2.573C1.152,45.313,0,44.16,0,42.74s1.151-2.572,2.572-2.572h42.855
			C46.85,40.168,48,41.32,48,42.74S46.85,45.313,45.428,45.313z"/>
	</g>
</g>
</svg>
